<svg width="50" height="50" viewBox="0 0 50 50" fill="none" xmlns="http://www.w3.org/2000/svg">
<path d="M25 48.5C19.1984 48.5 12.6024 45.6024 8.5 41.5C4.39764 37.3976 1.5 30.8016 1.5 25C1.5 19.1984 4.39764 12.6024 8.5 8.5C12.6024 4.39764 19.1984 1.5 25 1.5C30.8016 1.5 37.3976 4.39764 41.5 8.5C45.6024 12.6024 48.5 19.1984 48.5 25C48.5 30.8016 45.6024 37.3976 41.5 41.5C37.3976 45.6024 30.8016 48.5 25 48.5ZM25 50C31.6304 50 37.8116 47.1884 42.5 42.5C47.1884 37.8116 50 31.6304 50 25C50 18.3696 47.1884 12.1884 42.5 7.5C37.8116 2.81159 31.6304 0 25 0C18.3696 0 12.1884 2.81159 7.5 7.5C2.81159 12.1884 0 18.3696 0 25C0 31.6304 2.81159 37.8116 7.5 42.5C12.1884 47.1884 18.3696 50 25 50Z" fill="white"/>
<path d="M19.2043 12.2404C19.5677 12.0579 19.9758 11.9767 20.3835 12.0058C20.7912 12.0348 21.1827 12.173 21.5151 12.405L37.0687 23.2367C37.3567 23.4371 37.5915 23.7017 37.7535 24.0084C37.9155 24.3151 38 24.6552 38 25.0001C38 25.3451 37.9155 25.6851 37.7535 25.9919C37.5915 26.2986 37.3567 26.5632 37.0687 26.7636L21.5151 37.5953C21.1829 37.8271 20.7915 37.9652 20.384 37.9942C19.9765 38.0233 19.5687 37.9422 19.2053 37.76C18.842 37.5777 18.5373 37.3013 18.3247 36.9611C18.112 36.621 17.9997 36.2303 18 35.8319V14.1684C17.9996 13.7702 18.1118 13.3795 18.3242 13.0394C18.5367 12.6992 18.8412 12.4228 19.2043 12.2404V12.2404Z" fill="white"/>
</svg>
