<svg width="238" height="29" viewBox="0 0 238 29" fill="none" xmlns="http://www.w3.org/2000/svg">
<g clip-path="url(#clip0_3_25)">
<path fill-rule="evenodd" clip-rule="evenodd" d="M237.5 14.5C237.5 14.9272 237.295 15.1979 237 15.5C236.705 15.8021 236 16.1109 235.5 16.1109L5.3676 16.1109L15.2576 26.2466C15.5526 26.5491 15.7184 26.9593 15.7184 27.3871C15.7184 27.8149 15.5526 28.2251 15.2576 28.5276C14.9625 28.8301 14.5623 29 14.1451 29C13.7278 29 13.3276 28.8301 13.0325 28.5276L0.461929 15.6405C0.315597 15.4909 0.1995 15.3131 0.120285 15.1174C0.0410698 14.9217 0.000305176 14.7119 0.000305176 14.5C0.000305176 14.2881 0.0410698 14.0783 0.120285 13.8826C0.1995 13.6869 0.315597 13.5091 0.461929 13.3595L13.0325 0.472414C13.3276 0.169933 13.7278 1.89892e-06 14.1451 1.90735e-06C14.5623 1.91578e-06 14.9625 0.169933 15.2576 0.472414C15.5526 0.774895 15.7184 1.18515 15.7184 1.61292C15.7184 2.04069 15.5526 2.45095 15.2576 2.75343L5.3676 12.8891L235.5 12.8891C235.917 12.8891 236.705 13.1979 237 13.5C237.295 13.8021 237.5 14.0728 237.5 14.5Z" fill="white"/>
</g>
<defs>
<clipPath id="clip0_3_25">
<rect width="237.5" height="29" fill="white" transform="translate(237.5 29) rotate(180)"/>
</clipPath>
</defs>
</svg>
