<svg width="238" height="29" viewBox="0 0 238 29" fill="none" xmlns="http://www.w3.org/2000/svg">
<g clip-path="url(#clip0_3_21)">
<path fill-rule="evenodd" clip-rule="evenodd" d="M0 14.5C0 14.0728 0.205322 13.8021 0.500003 13.5C0.794684 13.1979 1.5 12.8891 2 12.8891H232.132L222.242 2.75343C221.947 2.45095 221.782 2.04069 221.782 1.61292C221.782 1.18515 221.947 0.774894 222.242 0.472413C222.537 0.169932 222.938 1.00787e-08 223.355 0C223.772 -1.00787e-08 224.172 0.169932 224.467 0.472413L237.038 13.3595C237.184 13.5091 237.3 13.6869 237.38 13.8826C237.459 14.0783 237.5 14.2881 237.5 14.5C237.5 14.7119 237.459 14.9217 237.38 15.1174C237.3 15.3131 237.184 15.4909 237.038 15.6405L224.467 28.5276C224.172 28.8301 223.772 29 223.355 29C222.938 29 222.537 28.8301 222.242 28.5276C221.947 28.2251 221.782 27.8149 221.782 27.3871C221.782 26.9593 221.947 26.5491 222.242 26.2466L232.132 16.1109H2C1.58326 16.1109 0.794681 15.8021 0.5 15.5C0.205319 15.1979 0 14.9272 0 14.5Z" fill="white"/>
</g>
<defs>
<clipPath id="clip0_3_21">
<rect width="237.5" height="29" fill="white"/>
</clipPath>
</defs>
</svg>
